STARTFONT 2.1
FONT -Monotype-Arial Narrow-Regular-R-Normal--36-360-75-75-P-142-iso8859-4
SIZE 36 75 75
FONTBOUNDINGBOX 38 44 -7 -8

STARTPROPERTIES 24
FOUNDRY "Monotype"
FAMILY_NAME "Arial Narrow"
WEIGHT_NAME "Regular"
SLANT "R"
SETWIDTH_NAME "Normal"
ADD_STYLE_NAME ""
PIXEL_SIZE 36
POINT_SIZE 360
RESOLUTION_X 75
RESOLUTION_Y 75
SPACING "P"
AVERAGE_WIDTH 142
CHARSET_REGISTRY "iso8859"
CHARSET_ENCODING "4"
FACE_NAME "Arial Narrow ISO Latin4"
_DEC_DEVICE_FONTNAMES "PS=arialnarrow-lat4"
COPYRIGHT "Copyright (c) 1993 Monotype Typography Ltd."
CAP_HEIGHT 31
X_HEIGHT 22
WEIGHT 10
QUAD_WIDTH 19
DEFAULT_CHAR 160
FONT_DESCENT 8
FONT_ASCENT 36
ENDPROPERTIES

CHARS 191

STARTCHAR space
ENCODING 32
SWIDTH 228 0
DWIDTH 9 0
BBX 0 0 0 0
BITMAP
ENDCHAR

STARTCHAR exclam
ENCODING 33
SWIDTH 228 0
DWIDTH 9 0
BBX 3 28 3 0
BITMAP
E0
E0
E0
E0
E0
E0
E0
E0
E0
E0
E0
E0
E0
E0
E0
E0
E0
E0
E0
60
40
00
00
00
E0
E0
E0
E0
ENDCHAR

STARTCHAR quotedbl
ENCODING 34
SWIDTH 291 0
DWIDTH 11 0
BBX 8 10 2 18
BITMAP
E7
E7
E7
E7
E7
E7
E7
E7
63
42
ENDCHAR

STARTCHAR numbersign
ENCODING 35
SWIDTH 456 0
DWIDTH 17 0
BBX 17 29 0 -1
BITMAP
038700
030700
030600
030600
030600
070600
070E00
060C00
FFFF80
FFFF80
F7FF80
0E0C00
0E1C00
0C1C00
0C1800
0C1800
0C1800
0C1800
FFFF80
FFFF80
FFFF80
183000
183000
183000
387000
387000
306000
306000
306000
ENDCHAR

STARTCHAR dollar
ENCODING 36
SWIDTH 456 0
DWIDTH 17 0
BBX 14 34 2 -4
BITMAP
0300
0300
0FC0
1FE0
3FF0
7B78
7338
E338
E318
E300
E300
E300
7300
7B00
3F00
3FC0
0FF0
03F8
0378
033C
031C
031C
431C
E31C
E31C
E31C
F338
7B78
3FF0
1FE0
0780
0300
0300
0300
ENDCHAR

STARTCHAR percent
ENCODING 37
SWIDTH 729 0
DWIDTH 28 0
BBX 23 28 2 0
BITMAP
3E0060
7F00C0
7300C0
E381C0
C18180
C18380
C18300
C18300
C18600
C18600
E38E00
630C00
7F1C00
3E1800
0018F8
0031FC
00318C
00738E
006306
00E306
00C306
00C306
018306
018306
03838E
0301DC
0701FC
0600F8
ENDCHAR

STARTCHAR ampersand
ENCODING 38
SWIDTH 547 0
DWIDTH 21 0
BBX 19 28 1 0
BITMAP
01E000
07F000
0FF800
0E3800
1C1C00
1C1C00
1C1C00
1C1C00
1E3800
0F7800
0FF000
07E000
07C000
1FC000
3EE000
78F1C0
707380
F07B80
E03D80
E01F00
E01F00
E00F00
F00F00
701F80
783DC0
3FF9E0
1FF0C0
07C040
ENDCHAR

STARTCHAR quoteright
ENCODING 39
SWIDTH 182 0
DWIDTH 7 0
BBX 3 9 2 19
BITMAP
E0
E0
E0
E0
60
60
60
C0
80
ENDCHAR

STARTCHAR parenleft
ENCODING 40
SWIDTH 273 0
DWIDTH 10 0
BBX 7 36 2 -8
BITMAP
06
06
0C
0C
18
18
38
30
30
70
70
60
60
E0
E0
E0
E0
E0
E0
E0
E0
E0
E0
60
70
70
70
30
38
38
18
1C
0C
0C
06
06
ENDCHAR

STARTCHAR parenright
ENCODING 41
SWIDTH 273 0
DWIDTH 10 0
BBX 7 36 2 -8
BITMAP
C0
C0
60
70
30
30
38
18
1C
1C
1C
0C
0C
0E
0E
0E
0E
0E
0E
0E
0E
0E
0E
0C
0C
1C
1C
18
18
38
30
30
60
60
C0
C0
ENDCHAR

STARTCHAR asterisk
ENCODING 42
SWIDTH 319 0
DWIDTH 12 0
BBX 10 12 1 16
BITMAP
0C00
0C00
0C00
4CC0
FDC0
FFC0
1C00
1E00
3B00
7380
3380
1100
ENDCHAR

STARTCHAR plus
ENCODING 43
SWIDTH 479 0
DWIDTH 18 0
BBX 15 17 2 5
BITMAP
0380
0380
0380
0380
0380
0380
0380
FFFE
FFFE
FFFE
0380
0380
0380
0380
0380
0380
0380
ENDCHAR

STARTCHAR comma
ENCODING 44
SWIDTH 228 0
DWIDTH 9 0
BBX 3 9 3 -5
BITMAP
E0
E0
E0
A0
60
60
60
C0
80
ENDCHAR

STARTCHAR minus
ENCODING 45
SWIDTH 479 0
DWIDTH 18 0
BBX 15 3 2 12
BITMAP
FFFE
FFFE
FFFE
ENDCHAR

STARTCHAR period
ENCODING 46
SWIDTH 228 0
DWIDTH 9 0
BBX 3 4 3 0
BITMAP
E0
E0
E0
E0
ENDCHAR

STARTCHAR slash
ENCODING 47
SWIDTH 228 0
DWIDTH 9 0
BBX 9 28 0 0
BITMAP
0380
0300
0300
0300
0700
0600
0600
0600
0E00
0E00
0C00
0C00
0C00
1C00
1800
1800
1800
3800
3000
3000
3000
7000
6000
6000
6000
6000
E000
C000
ENDCHAR

STARTCHAR zero
ENCODING 48
SWIDTH 456 0
DWIDTH 17 0
BBX 15 28 1 0
BITMAP
07C0
0FE0
1FF0
3C78
3838
701C
701C
600C
600E
E00E
E00E
E00E
E00E
E00E
E00E
E00E
E00E
E00E
E00E
600E
700C
701C
701C
3838
3C78
1FF0
0FE0
07C0
ENDCHAR

STARTCHAR one
ENCODING 49
SWIDTH 456 0
DWIDTH 17 0
BBX 8 27 4 0
BITMAP
03
07
0F
1F
3F
7F
F7
E7
C7
87
07
07
07
07
07
07
07
07
07
07
07
07
07
07
07
07
07
ENDCHAR

STARTCHAR two
ENCODING 50
SWIDTH 456 0
DWIDTH 17 0
BBX 15 28 1 0
BITMAP
07C0
0FF0
1FF8
3C3C
781C
700E
700E
700E
100E
000E
000C
001C
003C
0038
0078
00F0
01E0
03C0
0780
0F00
1E00
1C00
3C00
7800
7000
7FFE
FFFE
FFFE
ENDCHAR

STARTCHAR three
ENCODING 51
SWIDTH 456 0
DWIDTH 17 0
BBX 15 28 1 0
BITMAP
07C0
1FE0
3FF0
3838
7838
701C
701C
201C
001C
001C
0038
00F0
03E0
03F8
027C
001C
001E
000E
000E
000E
E00E
700E
701C
781C
3878
3FF8
1FF0
07C0
ENDCHAR

STARTCHAR four
ENCODING 52
SWIDTH 456 0
DWIDTH 17 0
BBX 16 28 0 0
BITMAP
0038
0038
0078
0078
00F8
00F8
01D8
03B8
0338
0738
0638
0E38
0C38
1C38
3838
3838
7038
6038
FFFF
FFFF
FFFF
0038
0038
0038
0038
0038
0038
0038
ENDCHAR

STARTCHAR five
ENCODING 53
SWIDTH 456 0
DWIDTH 17 0
BBX 15 27 1 0
BITMAP
1FFC
1FFC
3FFC
3800
3800
3800
3000
3000
7000
73E0
77F0
7FF8
783C
701C
001E
000E
000E
000E
000E
E00E
E00E
701C
701C
7838
3FF8
1FE0
07C0
ENDCHAR

STARTCHAR six
ENCODING 54
SWIDTH 456 0
DWIDTH 17 0
BBX 15 28 1 0
BITMAP
03C0
0FF0
1FF8
3C3C
381C
701C
700E
6000
E000
E000
E3E0
EFF0
EFF8
EC3C
F01C
F01E
E00E
E00E
E00E
E00E
E00E
700E
701C
781C
3C38
1FF8
0FF0
03C0
ENDCHAR

STARTCHAR seven
ENCODING 55
SWIDTH 456 0
DWIDTH 17 0
BBX 14 27 2 0
BITMAP
FFFC
FFFC
FFFC
0038
0078
0070
00E0
00E0
01C0
01C0
0380
0380
0380
0700
0700
0700
0E00
0E00
0E00
0E00
1C00
1C00
1C00
1C00
1C00
1C00
1C00
ENDCHAR

STARTCHAR eight
ENCODING 56
SWIDTH 456 0
DWIDTH 17 0
BBX 15 28 1 0
BITMAP
07C0
1FE0
1FF0
3838
7838
701C
701C
701C
701C
7838
3878
1FF0
0FE0
3FF0
7838
701C
701E
E00E
E00E
E00E
E00E
E00E
701C
701C
383C
3FF8
1FF0
07C0
ENDCHAR

STARTCHAR nine
ENCODING 57
SWIDTH 456 0
DWIDTH 17 0
BBX 15 28 1 0
BITMAP
0780
1FE0
3FF0
3C38
701C
701C
E00C
E00E
E00E
E00E
E00E
E00E
701E
701E
7C76
3FF6
1FEE
078E
000E
000E
000C
601C
701C
7038
7878
3FF0
1FE0
0780
ENDCHAR

STARTCHAR colon
ENCODING 58
SWIDTH 228 0
DWIDTH 9 0
BBX 3 20 3 0
BITMAP
E0
E0
E0
E0
00
00
00
00
00
00
00
00
00
00
00
00
E0
E0
E0
E0
ENDCHAR

STARTCHAR semicolon
ENCODING 59
SWIDTH 228 0
DWIDTH 9 0
BBX 3 25 3 -5
BITMAP
E0
E0
E0
E0
00
00
00
00
00
00
00
00
00
00
00
00
E0
E0
E0
A0
60
60
60
C0
80
ENDCHAR

STARTCHAR less
ENCODING 60
SWIDTH 479 0
DWIDTH 18 0
BBX 15 19 2 4
BITMAP
0002
000E
003E
00FE
03F8
0FE0
1F80
7E00
F800
E000
F800
FE00
3F80
0FE0
03F8
00FE
003E
000E
0002
ENDCHAR

STARTCHAR equal
ENCODING 61
SWIDTH 479 0
DWIDTH 18 0
BBX 15 11 2 8
BITMAP
FFFE
FFFE
FFFE
0000
0000
0000
0000
0000
FFFE
FFFE
FFFE
ENDCHAR

STARTCHAR greater
ENCODING 62
SWIDTH 479 0
DWIDTH 18 0
BBX 15 19 2 4
BITMAP
8000
C000
F000
FC00
7F00
1FC0
07F0
01FC
007E
001E
007E
00FC
03F0
0FC0
3F00
FC00
F000
C000
8000
ENDCHAR

STARTCHAR question
ENCODING 63
SWIDTH 456 0
DWIDTH 17 0
BBX 15 28 1 0
BITMAP
07C0
1FF0
3FF8
383C
701C
700E
600E
E00E
000E
000E
001C
003C
0078
00F0
00E0
01C0
01C0
0380
0380
0380
0380
0000
0000
0000
0380
0380
0380
0380
ENDCHAR

STARTCHAR at
ENCODING 64
SWIDTH 832 0
DWIDTH 32 0
BBX 29 36 2 -8
BITMAP
000FC000
007FF800
01FFFE00
03F01F00
07C00780
0F000380
0E0001C0
1C0000E0
380F00E0
383F9C60
307FD870
7070F870
60E07830
61E07830
E1C07830
E1C03030
C3803030
C3807030
C3807070
C3807060
C3807060
C380E0E0
E380E1C0
E1C1E1C0
E1C3E780
60FF7F00
70FE7E00
30387800
38000038
1C000070
1E0000E0
0F8003C0
07E00F80
01FFFF00
007FFC00
000FE000
ENDCHAR

STARTCHAR A
ENCODING 65
SWIDTH 547 0
DWIDTH 21 0
BBX 21 28 0 0
BITMAP
00F000
00F000
00F800
01D800
01F800
01DC00
019C00
039C00
038C00
030E00
070E00
070600
070700
0E0700
0E0700
0C0380
1FFF80
1FFF80
1FFFC0
1801C0
3801C0
3800E0
3800E0
7000E0
700070
700070
F00070
E00078
ENDCHAR

STARTCHAR B
ENCODING 66
SWIDTH 547 0
DWIDTH 21 0
BBX 17 28 2 0
BITMAP
FFF000
FFFC00
FFFE00
E01E00
E00F00
E00700
E00700
E00700
E00700
E00700
E00E00
E03E00
FFF800
FFFC00
FFFE00
E01F00
E00700
E00780
E00380
E00380
E00380
E00380
E00780
E00700
E01F00
FFFE00
FFFC00
FFF800
ENDCHAR

STARTCHAR C
ENCODING 67
SWIDTH 592 0
DWIDTH 22 0
BBX 20 28 2 0
BITMAP
01FC00
07FF00
0FFF80
1F0780
3C03C0
3801E0
7800E0
7000E0
700080
E00000
E00000
E00000
E00000
E00000
E00000
E00000
E00000
E00000
F00040
7000F0
7000E0
7800E0
3801E0
3C03C0
1F0FC0
0FFF80
07FE00
01FC00
ENDCHAR

STARTCHAR D
ENCODING 68
SWIDTH 592 0
DWIDTH 22 0
BBX 18 28 3 0
BITMAP
FFF000
FFFC00
FFFE00
E01F00
E00F00
E00780
E00380
E00380
E003C0
E001C0
E001C0
E001C0
E001C0
E001C0
E001C0
E001C0
E001C0
E001C0
E001C0
E00380
E00380
E00380
E00780
E00F00
E03E00
FFFE00
FFFC00
FFF000
ENDCHAR

STARTCHAR E
ENCODING 69
SWIDTH 547 0
DWIDTH 21 0
BBX 17 28 2 0
BITMAP
FFFF00
FFFF00
FFFF00
E00000
E00000
E00000
E00000
E00000
E00000
E00000
E00000
E00000
FFFE00
FFFE00
FFFE00
E00000
E00000
E00000
E00000
E00000
E00000
E00000
E00000
E00000
E00000
FFFF80
FFFF80
FFFF80
ENDCHAR

STARTCHAR F
ENCODING 70
SWIDTH 501 0
DWIDTH 19 0
BBX 15 28 2 0
BITMAP
FFFE
FFFE
FFFE
E000
E000
E000
E000
E000
E000
E000
E000
E000
FFF8
FFF8
FFF8
E000
E000
E000
E000
E000
E000
E000
E000
E000
E000
E000
E000
E000
ENDCHAR

STARTCHAR G
ENCODING 71
SWIDTH 638 0
DWIDTH 24 0
BBX 21 28 1 0
BITMAP
01FE00
07FF80
0FFFC0
1F83E0
1E00E0
3C0070
780070
700038
700020
F00000
E00000
E00000
E00000
E00000
E01FF8
E01FF8
E01FF8
E00038
F00038
700038
700038
780038
3C0038
1E00F8
1F83F0
0FFFE0
03FFC0
00FE00
ENDCHAR

STARTCHAR H
ENCODING 72
SWIDTH 592 0
DWIDTH 22 0
BBX 18 28 2 0
BITMAP
E001C0
E001C0
E001C0
E001C0
E001C0
E001C0
E001C0
E001C0
E001C0
E001C0
E001C0
E001C0
FFFFC0
FFFFC0
FFFFC0
E001C0
E001C0
E001C0
E001C0
E001C0
E001C0
E001C0
E001C0
E001C0
E001C0
E001C0
E001C0
E001C0
ENDCHAR

STARTCHAR I
ENCODING 73
SWIDTH 228 0
DWIDTH 9 0
BBX 3 28 3 0
BITMAP
E0
E0
E0
E0
E0
E0
E0
E0
E0
E0
E0
E0
E0
E0
E0
E0
E0
E0
E0
E0
E0
E0
E0
E0
E0
E0
E0
E0
ENDCHAR

STARTCHAR J
ENCODING 74
SWIDTH 410 0
DWIDTH 16 0
BBX 12 28 1 0
BITMAP
0070
0070
0070
0070
0070
0070
0070
0070
0070
0070
0070
0070
0070
0070
0070
0070
0070
0070
0070
4070
E070
E070
E070
E0F0
F1E0
7FE0
3FC0
1F00
ENDCHAR

STARTCHAR K
ENCODING 75
SWIDTH 547 0
DWIDTH 21 0
BBX 18 28 2 0
BITMAP
E003C0
E00780
E00F00
E01E00
E01C00
E03C00
E07800
E0F000
E1E000
E3C000
E38000
E78000
EF8000
EFC000
FDE000
F8E000
F0F000
F07000
E07800
E03C00
E03C00
E01E00
E00E00
E00F00
E00700
E00780
E003C0
E003C0
ENDCHAR

STARTCHAR L
ENCODING 76
SWIDTH 456 0
DWIDTH 17 0
BBX 14 28 2 0
BITMAP
E000
E000
E000
E000
E000
E000
E000
E000
E000
E000
E000
E000
E000
E000
E000
E000
E000
E000
E000
E000
E000
E000
E000
E000
E000
FFFC
FFFC
FFFC
ENDCHAR

STARTCHAR M
ENCODING 77
SWIDTH 683 0
DWIDTH 26 0
BBX 21 28 2 0
BITMAP
F80078
F80078
F800F8
F800F8
FC00F8
EC00D8
EC01D8
EC01B8
EE01B8
EE01B8
EE03B8
E60338
E70338
E70738
E30638
E38638
E38638
E38E38
E18C38
E1CC38
E1CC38
E1DC38
E0D838
E0E838
E0F838
E07038
E07038
E07038
ENDCHAR

STARTCHAR N
ENCODING 78
SWIDTH 592 0
DWIDTH 22 0
BBX 18 28 2 0
BITMAP
E001C0
F001C0
F001C0
F801C0
FC01C0
FC01C0
EE01C0
EE01C0
EF01C0
E701C0
E781C0
E381C0
E3C1C0
E1E1C0
E0E1C0
E0F1C0
E071C0
E079C0
E039C0
E03DC0
E01DC0
E01EC0
E00FC0
E00FC0
E007C0
E003C0
E003C0
E001C0
ENDCHAR

STARTCHAR O
ENCODING 79
SWIDTH 638 0
DWIDTH 24 0
BBX 21 28 2 0
BITMAP
01FC00
07FF00
0FFF80
1F07C0
3C01E0
3800E0
7800F0
700070
700070
700078
E00038
E00038
E00038
E00038
E00038
E00038
E00038
E00038
F00078
700070
700070
7800F0
3C00E0
1E01E0
1F07C0
0FFF80
07FF00
01FC00
ENDCHAR

STARTCHAR P
ENCODING 80
SWIDTH 547 0
DWIDTH 21 0
BBX 17 28 2 0
BITMAP
FFF800
FFFE00
FFFF00
E00F00
E00780
E00380
E00380
E00380
E00380
E00380
E00780
E00700
E01F00
FFFE00
FFFC00
FFF800
E00000
E00000
E00000
E00000
E00000
E00000
E00000
E00000
E00000
E00000
E00000
E00000
ENDCHAR

STARTCHAR Q
ENCODING 81
SWIDTH 638 0
DWIDTH 24 0
BBX 22 30 1 -2
BITMAP
01FC00
07FF00
0FFF80
1F07C0
3C01E0
3800E0
7800F0
700070
700070
F00038
E00038
E00038
E00038
E00038
E00038
E00038
E00038
E00038
700078
700070
701870
781CF0
3C1EE0
1E0BE0
1F07C0
0FFFE0
07FF70
01FC7C
000018
000008
ENDCHAR

STARTCHAR R
ENCODING 82
SWIDTH 592 0
DWIDTH 22 0
BBX 20 28 2 0
BITMAP
FFFC00
FFFF00
FFFF80
E00780
E003C0
E001C0
E001C0
E001C0
E001C0
E001C0
E003C0
E00F80
FFFF00
FFFE00
FFF000
E0F800
E03C00
E01E00
E01E00
E00F00
E00F00
E00780
E00780
E003C0
E003C0
E001E0
E001E0
E000F0
ENDCHAR

STARTCHAR S
ENCODING 83
SWIDTH 547 0
DWIDTH 21 0
BBX 18 28 1 0
BITMAP
07F800
0FFC00
1FFE00
3E0F00
380780
700380
700380
700380
700000
780000
3C0000
3F8000
1FF000
07FE00
01FF00
003F80
000780
0003C0
0001C0
E001C0
E001C0
7001C0
7003C0
780380
3E0F80
1FFF00
0FFE00
03F800
ENDCHAR

STARTCHAR T
ENCODING 84
SWIDTH 501 0
DWIDTH 19 0
BBX 17 28 1 0
BITMAP
FFFF80
FFFF80
FFFF80
01C000
01C000
01C000
01C000
01C000
01C000
01C000
01C000
01C000
01C000
01C000
01C000
01C000
01C000
01C000
01C000
01C000
01C000
01C000
01C000
01C000
01C000
01C000
01C000
01C000
ENDCHAR

STARTCHAR U
ENCODING 85
SWIDTH 592 0
DWIDTH 22 0
BBX 18 28 2 0
BITMAP
E001C0
E001C0
E001C0
E001C0
E001C0
E001C0
E001C0
E001C0
E001C0
E001C0
E001C0
E001C0
E001C0
E001C0
E001C0
E001C0
E001C0
E001C0
E001C0
E001C0
E001C0
F003C0
700380
780780
3E1F00
3FFF00
0FFC00
07F800
ENDCHAR

STARTCHAR V
ENCODING 86
SWIDTH 547 0
DWIDTH 21 0
BBX 21 28 0 0
BITMAP
F00078
700070
700070
700070
7800E0
3800E0
3800E0
3C01C0
1C01C0
1C01C0
1C0380
0E0380
0E0380
0E0300
070700
070700
070600
030E00
038E00
038C00
039C00
01DC00
01DC00
01D800
00D800
00F800
00F000
007000
ENDCHAR

STARTCHAR W
ENCODING 87
SWIDTH 774 0
DWIDTH 29 0
BBX 29 28 0 0
BITMAP
E0078038
70078038
700F8030
700E8070
700DC070
700DC070
381DC070
381DC060
381CC0E0
3818E0E0
1818E0E0
1C38E0E0
1C3860C0
1C3071C0
1C3071C0
0C7071C0
0C707180
0E703180
0E603B80
0E603B80
06E03B80
06E01B00
07401B00
07401B00
03C01F00
03C01E00
03C00E00
03800E00
ENDCHAR

STARTCHAR X
ENCODING 88
SWIDTH 547 0
DWIDTH 21 0
BBX 21 28 0 0
BITMAP
780070
3C00E0
1C01E0
1E01C0
0E0380
0F0780
070700
078F00
038E00
01DC00
01DC00
00F800
00F800
007000
00F800
01FC00
01DC00
03DE00
038E00
078F00
070700
0E0780
1E03C0
1C03C0
3C01E0
3800E0
7800F0
F00078
ENDCHAR

STARTCHAR Y
ENCODING 89
SWIDTH 547 0
DWIDTH 21 0
BBX 21 28 0 0
BITMAP
F00078
780070
3800F0
3C00E0
1C01C0
1E01C0
0E0380
0F0780
070700
078F00
03CE00
01DE00
01EC00
00F800
00F800
007000
007000
007000
007000
007000
007000
007000
007000
007000
007000
007000
007000
007000
ENDCHAR

STARTCHAR Z
ENCODING 90
SWIDTH 501 0
DWIDTH 19 0
BBX 17 28 1 0
BITMAP
7FFF80
7FFF80
7FFF80
000780
000F00
000E00
001E00
003C00
003800
007800
00F000
00F000
01E000
01C000
03C000
078000
070000
0F0000
1E0000
1C0000
3C0000
380000
780000
F00000
E00000
FFFF80
FFFF80
FFFF80
ENDCHAR

STARTCHAR bracketleft
ENCODING 91
SWIDTH 228 0
DWIDTH 9 0
BBX 6 36 2 -8
BITMAP
FC
FC
FC
E0
E0
E0
E0
E0
E0
E0
E0
E0
E0
E0
E0
E0
E0
E0
E0
E0
E0
E0
E0
E0
E0
E0
E0
E0
E0
E0
E0
E0
E0
FC
FC
FC
ENDCHAR

STARTCHAR backslash
ENCODING 92
SWIDTH 228 0
DWIDTH 9 0
BBX 9 28 0 0
BITMAP
C000
E000
6000
6000
6000
6000
7000
3000
3000
3000
3800
1800
1800
1800
1C00
0C00
0C00
0C00
0E00
0600
0600
0600
0600
0700
0300
0300
0300
0380
ENDCHAR

STARTCHAR bracketright
ENCODING 93
SWIDTH 228 0
DWIDTH 9 0
BBX 6 36 1 -8
BITMAP
FC
FC
FC
1C
1C
1C
1C
1C
1C
1C
1C
1C
1C
1C
1C
1C
1C
1C
1C
1C
1C
1C
1C
1C
1C
1C
1C
1C
1C
1C
1C
1C
1C
FC
FC
FC
ENDCHAR

STARTCHAR asciicircum
ENCODING 94
SWIDTH 385 0
DWIDTH 15 0
BBX 13 15 1 13
BITMAP
0700
0700
0F00
0F80
0D80
1D80
19C0
18C0
38E0
30E0
7060
7070
6070
E030
E038
ENDCHAR

STARTCHAR underscore
ENCODING 95
SWIDTH 456 0
DWIDTH 17 0
BBX 19 2 -1 -5
BITMAP
FFFFE0
FFFFE0
ENDCHAR

STARTCHAR quoteleft
ENCODING 96
SWIDTH 182 0
DWIDTH 7 0
BBX 3 9 2 19
BITMAP
20
60
C0
C0
C0
E0
E0
E0
E0
ENDCHAR

STARTCHAR a
ENCODING 97
SWIDTH 456 0
DWIDTH 17 0
BBX 15 20 1 0
BITMAP
07E0
1FF0
3FF8
783C
701C
601C
001C
001C
01FC
1FFC
3FDC
781C
F01C
E01C
E01C
E03C
F07C
7FEC
3FDC
0F0E
ENDCHAR

STARTCHAR b
ENCODING 98
SWIDTH 456 0
DWIDTH 17 0
BBX 14 28 2 0
BITMAP
E000
E000
E000
E000
E000
E000
E000
E000
E7C0
EFE0
EFF0
F878
F038
F038
E01C
E01C
E01C
E01C
E01C
E01C
E01C
E018
E038
F038
F870
EFF0
EFE0
E780
ENDCHAR

STARTCHAR c
ENCODING 99
SWIDTH 410 0
DWIDTH 16 0
BBX 14 20 1 0
BITMAP
07C0
1FF0
3FF8
3838
703C
701C
E010
E000
E000
E000
E000
E000
E010
601C
701C
703C
3878
3FF0
1FE0
07C0
ENDCHAR

STARTCHAR d
ENCODING 100
SWIDTH 456 0
DWIDTH 17 0
BBX 14 28 1 0
BITMAP
001C
001C
001C
001C
001C
001C
001C
001C
0F9C
1FDC
3FEC
387C
703C
701C
E01C
E01C
E01C
E01C
E01C
E01C
E01C
601C
701C
703C
387C
3FEC
1FDC
079C
ENDCHAR

STARTCHAR e
ENCODING 101
SWIDTH 456 0
DWIDTH 17 0
BBX 15 20 1 0
BITMAP
07C0
1FF0
3FF8
383C
701C
700C
E00E
E00E
FFFE
FFFE
FFFE
E000
E000
E008
700E
701C
3C3C
3FF8
0FF0
03C0
ENDCHAR

STARTCHAR f
ENCODING 102
SWIDTH 228 0
DWIDTH 9 0
BBX 9 28 1 0
BITMAP
0F80
1F80
1F80
3C00
3800
3800
3800
3800
FF00
FF00
FF00
3800
3800
3800
3800
3800
3800
3800
3800
3800
3800
3800
3800
3800
3800
3800
3800
3800
ENDCHAR

STARTCHAR g
ENCODING 103
SWIDTH 456 0
DWIDTH 17 0
BBX 15 28 1 -8
BITMAP
078E
1FEE
3FF6
383E
701E
701E
600E
E00E
E00E
E00E
E00E
E00E
E00E
600E
701E
701E
383E
3FF6
1FEE
078E
000E
400E
701C
701C
783C
3FF8
1FF0
07C0
ENDCHAR

STARTCHAR h
ENCODING 104
SWIDTH 456 0
DWIDTH 17 0
BBX 13 28 2 0
BITMAP
E000
E000
E000
E000
E000
E000
E000
E000
E7C0
EFE0
EFF0
F870
F038
E038
E038
E038
E038
E038
E038
E038
E038
E038
E038
E038
E038
E038
E038
E038
ENDCHAR

STARTCHAR i
ENCODING 105
SWIDTH 182 0
DWIDTH 7 0
BBX 3 28 2 0
BITMAP
E0
E0
E0
E0
00
00
00
00
E0
E0
E0
E0
E0
E0
E0
E0
E0
E0
E0
E0
E0
E0
E0
E0
E0
E0
E0
E0
ENDCHAR

STARTCHAR j
ENCODING 106
SWIDTH 182 0
DWIDTH 7 0
BBX 6 36 -1 -8
BITMAP
1C
1C
1C
1C
00
00
00
00
1C
1C
1C
1C
1C
1C
1C
1C
1C
1C
1C
1C
1C
1C
1C
1C
1C
1C
1C
1C
1C
1C
1C
1C
1C
F8
F8
F0
ENDCHAR

STARTCHAR k
ENCODING 107
SWIDTH 410 0
DWIDTH 16 0
BBX 14 28 2 0
BITMAP
E000
E000
E000
E000
E000
E000
E000
E000
E078
E0F0
E1E0
E1C0
E380
E700
EE00
EE00
FE00
FF00
F700
E380
E3C0
E1C0
E1E0
E0E0
E0F0
E070
E078
E03C
ENDCHAR

STARTCHAR l
ENCODING 108
SWIDTH 182 0
DWIDTH 7 0
BBX 3 28 2 0
BITMAP
E0
E0
E0
E0
E0
E0
E0
E0
E0
E0
E0
E0
E0
E0
E0
E0
E0
E0
E0
E0
E0
E0
E0
E0
E0
E0
E0
E0
ENDCHAR

STARTCHAR m
ENCODING 109
SWIDTH 683 0
DWIDTH 26 0
BBX 22 20 2 0
BITMAP
E7C1E0
EFE3F8
EFF7F8
F87E3C
F03C1C
F0381C
E0381C
E0381C
E0381C
E0381C
E0381C
E0381C
E0381C
E0381C
E0381C
E0381C
E0381C
E0381C
E0381C
E0381C
ENDCHAR

STARTCHAR n
ENCODING 110
SWIDTH 456 0
DWIDTH 17 0
BBX 13 20 2 0
BITMAP
E7C0
EFE0
EFF0
F870
F038
E038
E038
E038
E038
E038
E038
E038
E038
E038
E038
E038
E038
E038
E038
E038
ENDCHAR

STARTCHAR o
ENCODING 111
SWIDTH 456 0
DWIDTH 17 0
BBX 15 20 1 0
BITMAP
07C0
1FF0
3FF8
3838
701C
701C
E00E
E00E
E00E
E00E
E00E
E00E
E00E
E00E
701C
701C
3838
3FF8
1FF0
07C0
ENDCHAR

STARTCHAR p
ENCODING 112
SWIDTH 456 0
DWIDTH 17 0
BBX 14 28 2 -8
BITMAP
E780
FFE0
ECF0
F038
F038
E018
E01C
E01C
E01C
E01C
E01C
E01C
E01C
E018
E038
F038
F870
EFF0
EFE0
E780
E000
E000
E000
E000
E000
E000
E000
E000
ENDCHAR

STARTCHAR q
ENCODING 113
SWIDTH 456 0
DWIDTH 17 0
BBX 14 28 1 -8
BITMAP
079C
1FDC
3FEC
387C
703C
701C
E01C
E01C
E01C
E00C
E00C
E01C
E01C
601C
701C
703C
387C
3FEC
1FDC
079C
001C
001C
001C
001C
001C
001C
001C
001C
ENDCHAR

STARTCHAR r
ENCODING 114
SWIDTH 273 0
DWIDTH 10 0
BBX 9 20 2 0
BITMAP
EF00
FF80
EF00
F900
F000
E000
E000
E000
E000
E000
E000
E000
E000
E000
E000
E000
E000
E000
E000
E000
ENDCHAR

STARTCHAR s
ENCODING 115
SWIDTH 410 0
DWIDTH 16 0
BBX 13 20 1 0
BITMAP
0F80
3FE0
7FE0
7070
E070
E030
E000
F800
7F00
3FE0
0FF0
01F0
0078
4038
E038
E038
7070
7FF0
3FE0
0F80
ENDCHAR

STARTCHAR t
ENCODING 116
SWIDTH 228 0
DWIDTH 9 0
BBX 8 27 0 0
BITMAP
08
18
38
38
38
38
38
FF
FF
FF
38
38
38
38
38
38
38
38
38
38
38
38
38
38
3F
1F
0F
ENDCHAR

STARTCHAR u
ENCODING 117
SWIDTH 456 0
DWIDTH 17 0
BBX 13 20 2 0
BITMAP
E038
E038
E038
E038
E038
E038
E038
E038
E038
E038
E038
E038
E038
E038
E038
E078
70F8
7FD8
3FB8
0F38
ENDCHAR

STARTCHAR v
ENCODING 118
SWIDTH 410 0
DWIDTH 16 0
BBX 15 20 0 0
BITMAP
E00E
700E
700C
701C
381C
381C
3838
1838
1C38
1C30
0C70
0E70
0E60
06E0
06E0
0740
03C0
03C0
03C0
0380
ENDCHAR

STARTCHAR w
ENCODING 119
SWIDTH 592 0
DWIDTH 22 0
BBX 22 20 0 0
BITMAP
E0380C
E0381C
70781C
707C18
707C18
706C38
30EC38
38EC30
38CE30
38CE70
18CE70
1DC660
1DC660
1D8760
0D8760
0E83C0
0F83C0
0F03C0
0703C0
070380
ENDCHAR

STARTCHAR x
ENCODING 120
SWIDTH 410 0
DWIDTH 16 0
BBX 15 20 0 0
BITMAP
701E
781C
383C
1C38
1C70
0EF0
0F60
07E0
03C0
0380
03C0
07E0
0F60
0E70
1E70
1C38
3838
381C
701E
F00E
ENDCHAR

STARTCHAR y
ENCODING 121
SWIDTH 410 0
DWIDTH 16 0
BBX 14 28 1 -8
BITMAP
E01C
E01C
E01C
6018
7038
7038
7030
3870
3870
3860
1CE0
1CE0
1CE0
0CC0
0EC0
0EC0
0780
0780
0780
0700
0300
0700
0700
0600
0E00
7C00
7C00
7800
ENDCHAR

STARTCHAR z
ENCODING 122
SWIDTH 410 0
DWIDTH 16 0
BBX 14 20 1 0
BITMAP
FFF8
FFF8
FFB8
0078
0070
00E0
01E0
03C0
0380
0700
0F00
0E00
1C00
3C00
7800
7000
E000
FFFC
FFFC
FFFC
ENDCHAR

STARTCHAR braceleft
ENCODING 123
SWIDTH 274 0
DWIDTH 10 0
BBX 9 36 1 -8
BITMAP
0380
0F80
0F80
0E00
1C00
1C00
1C00
1C00
1C00
1C00
1C00
1C00
1C00
1C00
1800
3800
F000
E000
F000
F000
3800
1800
1C00
1C00
1C00
1C00
1C00
1C00
1C00
1C00
1C00
1C00
0E00
0F80
0F80
0380
ENDCHAR

STARTCHAR bar
ENCODING 124
SWIDTH 213 0
DWIDTH 8 0
BBX 2 36 3 -8
BITMAP
C0
C0
C0
C0
C0
C0
C0
C0
C0
C0
C0
C0
C0
C0
C0
C0
C0
C0
C0
C0
C0
C0
C0
C0
C0
C0
C0
C0
C0
C0
C0
C0
C0
C0
C0
C0
ENDCHAR

STARTCHAR braceright
ENCODING 125
SWIDTH 274 0
DWIDTH 10 0
BBX 9 36 1 -8
BITMAP
E000
F800
F800
3C00
1C00
1C00
1C00
1C00
1C00
1C00
1C00
1C00
1C00
1C00
0C00
0E00
0780
0380
0380
0780
0E00
0C00
1C00
1C00
1C00
1C00
1C00
1C00
1C00
1C00
1C00
1C00
3800
F800
F800
E000
ENDCHAR

STARTCHAR asciitilde
ENCODING 126
SWIDTH 479 0
DWIDTH 18 0
BBX 16 6 1 11
BITMAP
1C01
7F81
FFE7
FFFF
C1FF
807C
ENDCHAR

STARTCHAR space
ENCODING 160
SWIDTH 228 0
DWIDTH 10 0
BBX 0 0 0 0
BITMAP
ENDCHAR

STARTCHAR Aogonek
ENCODING 161
SWIDTH 547 0
DWIDTH 21 0
BBX 24 36 0 -8
BITMAP
00F000
00F000
00F800
00D800
01D800
01DC00
01DC00
039C00
038E00
038E00
070E00
070F00
070700
0F0700
0E0780
0E0380
0E0380
1FFFC0
1FFFC0
1FFFC0
3801C0
3801E0
3800E0
7800E0
7000F0
700070
F00070
E00038
000060
000060
000060
000060
000060
00007B
00003F
00003E
ENDCHAR

STARTCHAR afii240
ENCODING 162
SWIDTH 500 0
DWIDTH 19 0
BBX 16 20 3 0
BITMAP
E01E
E03C
E078
E0F0
E1E0
E3C0
E780
EF00
FF80
FF80
FBC0
F1E0
E1E0
E0F0
E078
E078
E03C
E03E
E01E
E00F
ENDCHAR

STARTCHAR Rcommaaccent
ENCODING 163
SWIDTH 592 0
DWIDTH 22 0
BBX 20 36 2 -8
BITMAP
FFFC00
FFFF00
FFFF80
E00780
E003C0
E001C0
E001C0
E001C0
E001C0
E001C0
E003C0
E00380
E00F80
FFFF00
FFFE00
FFF000
E07800
E03C00
E01E00
E00E00
E00F00
E00700
E00780
E003C0
E003C0
E001E0
E001E0
E000F0
000000
000000
01C000
01C000
01C000
00C000
008000
018000
ENDCHAR

STARTCHAR currency
ENCODING 164
SWIDTH 456 0
DWIDTH 17 0
BBX 15 18 1 4
BITMAP
400C
E7CE
FFFC
7FFC
3C78
7038
701C
601C
601C
601C
601C
701C
7038
3C78
7FFC
FFFE
E7CC
400C
ENDCHAR

STARTCHAR Itilde
ENCODING 165
SWIDTH 228 0
DWIDTH 9 0
BBX 10 34 0 0
BITMAP
78C0
FFC0
CF80
C300
0000
0000
1C00
1C00
1C00
1C00
1C00
1C00
1C00
1C00
1C00
1C00
1C00
1C00
1C00
1C00
1C00
1C00
1C00
1C00
1C00
1C00
1C00
1C00
1C00
1C00
1C00
1C00
1C00
1C00
ENDCHAR

STARTCHAR Lcommaaccent
ENCODING 166
SWIDTH 456 0
DWIDTH 17 0
BBX 14 36 2 -8
BITMAP
E000
E000
E000
E000
E000
E000
E000
E000
E000
E000
E000
E000
E000
E000
E000
E000
E000
E000
E000
E000
E000
E000
E000
E000
E000
FFFC
FFFC
FFFC
0000
0000
0700
0700
0700
0300
0200
0600
ENDCHAR

STARTCHAR section
ENCODING 167
SWIDTH 456 0
DWIDTH 17 0
BBX 15 36 1 -8
BITMAP
0780
1FE0
3FF0
3878
7038
7038
701C
7000
3800
3C00
1F00
3F80
77C0
E1F0
C0F8
C07C
C03C
E01E
F00E
780E
3C0E
1F0C
0F9C
07F8
03E0
00F0
0078
0038
001C
701C
701C
781C
3838
3FF8
1FF0
07C0
ENDCHAR

STARTCHAR hungarumlaut
ENCODING 168
SWIDTH 273 0
DWIDTH 10 0
BBX 11 5 1 22
BITMAP
79E0
73C0
7380
E300
C700
ENDCHAR

STARTCHAR Scaron
ENCODING 169
SWIDTH 547 0
DWIDTH 21 0
BBX 18 35 1 0
BITMAP
071C00
073800
03B800
01F000
01E000
000000
000000
07F800
0FFC00
1FFE00
3E0F00
380780
700380
700380
700380
700000
780000
3C0000
3F8000
1FF000
07FE00
01FF00
003F80
000780
0003C0
0001C0
E001C0
E001C0
7001C0
7003C0
780380
3E0F80
1FFF00
0FFE00
03F800
ENDCHAR

STARTCHAR Emacron
ENCODING 170
SWIDTH 547 0
DWIDTH 21 0
BBX 17 33 2 0
BITMAP
0FF800
0FF800
0FF800
000000
000000
FFFF00
FFFF00
FFFF00
E00000
E00000
E00000
E00000
E00000
E00000
E00000
E00000
E00000
FFFE00
FFFE00
FFFE00
E00000
E00000
E00000
E00000
E00000
E00000
E00000
E00000
E00000
E00000
FFFF80
FFFF80
FFFF80
ENDCHAR

STARTCHAR Gcommaaccent
ENCODING 171
SWIDTH 638 0
DWIDTH 24 0
BBX 20 36 2 -8
BITMAP
01FC00
07FF00
0FFF80
1F07C0
3E01C0
3800E0
7800E0
700070
700040
F00000
E00000
E00000
E00000
E00000
E01FF0
E01FF0
E01FF0
E00070
F00070
700070
700070
780070
3C0070
3E01F0
1F87E0
0FFFC0
07FF80
01FE00
000000
000000
007000
007000
007000
003000
002000
006000
ENDCHAR

STARTCHAR afii237
ENCODING 172
SWIDTH 614 0
DWIDTH 23 0
BBX 22 28 1 0
BITMAP
FFFFFC
FFFFFC
FFFFFC
007800
007800
007800
007800
007800
007800
007800
007800
007800
007800
007800
1FFFF0
1FFFF0
007800
007800
007800
007800
007800
007800
007800
007800
007800
007800
007800
007800
ENDCHAR

STARTCHAR hyphen
ENCODING 173
SWIDTH 273 0
DWIDTH 10 0
BBX 8 3 1 8
BITMAP
FF
FF
FF
ENDCHAR

STARTCHAR Zcaron
ENCODING 174
SWIDTH 501 0
DWIDTH 19 0
BBX 17 35 1 0
BITMAP
0E3800
077000
03A000
03E000
01C000
000000
000000
7FFF80
7FFF80
7FFF80
000780
000F00
000E00
001E00
003C00
003800
007800
00F000
00F000
01E000
01C000
03C000
078000
070000
0F0000
1E0000
1C0000
3C0000
380000
780000
F00000
E00000
FFFF80
FFFF80
FFFF80
ENDCHAR

STARTCHAR macron
ENCODING 175
SWIDTH 273 0
DWIDTH 10 0
BBX 10 3 0 23
BITMAP
FFC0
FFC0
FFC0
ENDCHAR

STARTCHAR degree
ENCODING 176
SWIDTH 328 0
DWIDTH 12 0
BBX 9 10 2 18
BITMAP
1C00
7F00
6300
C180
C180
C180
C180
6300
7F00
1C00
ENDCHAR

STARTCHAR aogonek
ENCODING 177
SWIDTH 456 0
DWIDTH 17 0
BBX 18 28 1 -8
BITMAP
07E000
1FF000
3FF800
783C00
701C00
601C00
001C00
001C00
03FC00
1FFC00
7FDC00
781C00
F01C00
E01C00
E01C00
E03C00
F07C00
7FEC00
3FCE00
1F0800
001800
001800
001800
001800
001C00
001EC0
000FC0
000F80
ENDCHAR

STARTCHAR ogonek
ENCODING 178
SWIDTH 273 0
DWIDTH 10 0
BBX 7 9 3 -8
BITMAP
60
C0
C0
C0
C0
C0
F6
7E
7C
ENDCHAR

STARTCHAR rcommaaccent
ENCODING 179
SWIDTH 273 0
DWIDTH 10 0
BBX 9 28 2 -8
BITMAP
EF00
FF80
EF00
F900
F000
E000
E000
E000
E000
E000
E000
E000
E000
E000
E000
E000
E000
E000
E000
E000
0000
0000
3800
3800
3800
1800
1000
3000
ENDCHAR

STARTCHAR acute
ENCODING 180
SWIDTH 273 0
DWIDTH 10 0
BBX 6 5 3 22
BITMAP
3C
38
70
70
E0
ENDCHAR

STARTCHAR itilde
ENCODING 181
SWIDTH 182 0
DWIDTH 7 0
BBX 10 27 -1 0
BITMAP
79C0
FF80
CF80
C700
0000
0000
0000
1C00
1C00
1C00
1C00
1C00
1C00
1C00
1C00
1C00
1C00
1C00
1C00
1C00
1C00
1C00
1C00
1C00
1C00
1C00
1C00
ENDCHAR

STARTCHAR lcommaaccent
ENCODING 182
SWIDTH 182 0
DWIDTH 7 0
BBX 3 36 2 -8
BITMAP
E0
E0
E0
E0
E0
E0
E0
E0
E0
E0
E0
E0
E0
E0
E0
E0
E0
E0
E0
E0
E0
E0
E0
E0
E0
E0
E0
E0
00
00
E0
E0
E0
60
60
C0
ENDCHAR

STARTCHAR caron
ENCODING 183
SWIDTH 273 0
DWIDTH 10 0
BBX 9 5 1 22
BITMAP
E380
7700
7600
3E00
1C00
ENDCHAR

STARTCHAR commaaccent
ENCODING 184
SWIDTH 331 0
DWIDTH 13 0
BBX 3 6 5 -8
BITMAP
E0
E0
E0
60
40
C0
ENDCHAR

STARTCHAR scaron
ENCODING 185
SWIDTH 410 0
DWIDTH 16 0
BBX 13 27 1 0
BITMAP
38E0
1DC0
1DC0
0F80
0700
0000
0000
0F80
3FC0
7FE0
7070
E070
E030
E000
7800
7F00
3FC0
0FF0
01F0
0078
4038
E038
E038
7070
7FF0
3FE0
0F80
ENDCHAR

STARTCHAR emacron
ENCODING 186
SWIDTH 456 0
DWIDTH 17 0
BBX 15 26 1 0
BITMAP
1FF0
1FF0
1FF0
0000
0000
0000
07C0
1FF0
3FF8
383C
701C
700C
E00E
E00E
FFFE
FFFE
FFFE
E000
E000
E008
700E
701C
3C3C
3FF8
1FF0
03C0
ENDCHAR

STARTCHAR gcommaaccent
ENCODING 187
SWIDTH 456 0
DWIDTH 17 0
BBX 14 36 1 -8
BITMAP
0180
0100
0300
0380
0380
0380
0000
0000
079C
1FDC
3FEC
387C
703C
701C
601C
E01C
E01C
E01C
E01C
E01C
E01C
601C
701C
703C
387C
3FEC
1FDC
079C
001C
401C
6018
7038
7878
3FF0
1FE0
0780
ENDCHAR

STARTCHAR afii253
ENCODING 188
SWIDTH 280 0
DWIDTH 11 0
BBX 10 27 0 0
BITMAP
0400
0C00
1C00
1C00
1C00
1C00
1C00
FFC0
FFC0
FFC0
1C00
1C00
1C00
1C00
1C00
FFC0
FFC0
1C00
1C00
1C00
1C00
1C00
1C00
1E00
1FC0
0FC0
07C0
ENDCHAR

STARTCHAR afii238
ENCODING 189
SWIDTH 723 0
DWIDTH 27 0
BBX 23 28 3 0
BITMAP
F0FF00
F3FF80
F7FFE0
F783F0
FE00F0
FC0078
F80038
F8003C
F0003C
F0001C
F0001E
F0001E
F0001E
F0001E
F0001E
F0001E
F0001E
F0001E
F0001E
F0001C
F0003C
F0003C
F0007C
F00078
F031F0
F03FF0
F07FE0
F01F80
ENDCHAR

STARTCHAR zcaron
ENCODING 190
SWIDTH 410 0
DWIDTH 16 0
BBX 14 28 1 0
BITMAP
3870
1CE0
1CE0
0EC0
0780
0780
0000
0000
FFF8
FFF8
FFB8
0078
0070
00E0
01E0
03C0
0380
0700
0F00
0E00
1C00
3C00
3800
7000
E000
FFFC
FFFC
FFFC
ENDCHAR

STARTCHAR afii254
ENCODING 191
SWIDTH 556 0
DWIDTH 21 0
BBX 16 28 3 -8
BITMAP
E3F0
E7FC
FFFE
FC1F
F80F
F007
E007
E007
E007
E007
E007
E007
E007
E007
E007
E007
E007
E007
E007
E007
0007
0007
0007
0007
000F
007F
007E
00FC
ENDCHAR

STARTCHAR Amacron
ENCODING 192
SWIDTH 547 0
DWIDTH 21 0
BBX 21 33 0 0
BITMAP
03FE00
03FE00
03FE00
000000
000000
00F000
00F000
00F000
00D800
01D800
01D800
019C00
039C00
038C00
030E00
070E00
070600
070700
0E0700
0E0700
0C0380
1FFF80
1FFF80
1FFFC0
1801C0
3801C0
3800E0
3800E0
7000E0
700070
700070
F00070
E00078
ENDCHAR

STARTCHAR Aacute
ENCODING 193
SWIDTH 547 0
DWIDTH 21 0
BBX 21 35 0 0
BITMAP
003C00
003800
003000
007000
006000
000000
000000
00F000
00F000
00F800
01D800
01D800
01DC00
019C00
039C00
038C00
030E00
070E00
070600
070700
0E0700
0E0700
0C0380
1FFF80
1FFF80
1FFFC0
1801C0
3801C0
3800E0
3800E0
7000E0
700070
700070
F00070
E00078
ENDCHAR

STARTCHAR Acircumflex
ENCODING 194
SWIDTH 547 0
DWIDTH 21 0
BBX 21 35 0 0
BITMAP
00F000
00F800
01DC00
03DC00
038E00
000000
000000
00F000
00F000
00F800
01D800
01D800
01DC00
019C00
039C00
038C00
030E00
070E00
070600
070700
0E0700
0E0700
0C0380
1FFF80
1FFF80
1FFFC0
1801C0
3801C0
3800E0
3800E0
7000E0
700070
700070
F00070
E00078
ENDCHAR

STARTCHAR Atilde
ENCODING 195
SWIDTH 547 0
DWIDTH 21 0
BBX 21 34 0 0
BITMAP
01E700
03FE00
073E00
060C00
000000
000000
00F000
00F000
00F800
01D800
01D800
01DC00
019C00
039C00
038C00
030E00
070E00
070600
070700
0E0700
0E0700
0C0380
1FFF80
1FFF80
1FFFC0
1801C0
3801C0
3800E0
3800E0
7000E0
700070
700070
F00070
E00078
ENDCHAR

STARTCHAR Adieresis
ENCODING 196
SWIDTH 547 0
DWIDTH 21 0
BBX 21 35 0 0
BITMAP
038E00
038E00
038E00
038E00
000000
000000
000000
00F000
00F000
00F800
01D800
01D800
01DC00
019C00
039C00
038E00
030E00
070E00
070700
070700
0E0700
0E0380
0C0380
1FFF80
1FFFC0
1FFFC0
3801C0
3800E0
3800E0
3800E0
7000F0
700070
700070
E00078
E00038
ENDCHAR

STARTCHAR Aring
ENCODING 197
SWIDTH 547 0
DWIDTH 21 0
BBX 21 36 0 0
BITMAP
007000
00D800
008800
008800
008800
00D800
007000
000000
007000
00F000
00F000
00D800
01D800
01D800
019C00
039C00
038C00
038E00
030E00
070600
070700
060700
0E0700
0E0380
0FFF80
1FFF80
1FFFC0
1C01C0
3801C0
3801E0
3800E0
3800E0
7000F0
700070
700070
E00078
ENDCHAR

STARTCHAR AE
ENCODING 198
SWIDTH 820 0
DWIDTH 31 0
BBX 30 28 0 0
BITMAP
001FFFF8
003FFFF8
003FFFF8
0079C000
0071C000
0071C000
00F1C000
00E1C000
00E1C000
01C1C000
01C1C000
03C1C000
0381FFF0
0381FFF0
0701FFF0
0701C000
0701C000
0FFFC000
0FFFC000
1FFFC000
1C01C000
1C01C000
3C01C000
3801C000
3801C000
7001FFFC
7001FFFC
F001FFFC
ENDCHAR

STARTCHAR Iogonek
ENCODING 199
SWIDTH 228 0
DWIDTH 9 0
BBX 7 36 2 -8
BITMAP
70
70
70
70
70
70
70
70
70
70
70
70
70
70
70
70
70
70
70
70
70
70
70
70
70
70
70
70
40
C0
C0
C0
C0
E6
7E
7C
ENDCHAR

STARTCHAR Ccaron
ENCODING 200
SWIDTH 592 0
DWIDTH 22 0
BBX 20 35 2 0
BITMAP
078E00
039C00
01D800
01F800
00F000
000000
000000
01FC00
07FF00
0FFF80
1F0780
3C03C0
3801E0
7800E0
7000E0
700080
E00000
E00000
E00000
E00000
E00000
E00000
E00000
E00000
E00000
F00040
7000F0
7000E0
7800E0
3801E0
3C03C0
1F0F80
0FFF80
07FE00
01FC00
ENDCHAR

STARTCHAR Eacute
ENCODING 201
SWIDTH 547 0
DWIDTH 21 0
BBX 17 35 2 0
BITMAP
00F000
00E000
01C000
01C000
018000
000000
000000
FFFF00
FFFF00
FFFF00
E00000
E00000
E00000
E00000
E00000
E00000
E00000
E00000
E00000
FFFE00
FFFE00
FFFE00
E00000
E00000
E00000
E00000
E00000
E00000
E00000
E00000
E00000
E00000
FFFF80
FFFF80
FFFF80
ENDCHAR

STARTCHAR Eogonek
ENCODING 202
SWIDTH 547 0
DWIDTH 21 0
BBX 17 36 2 -8
BITMAP
FFFF00
FFFF00
FFFF00
E00000
E00000
E00000
E00000
E00000
E00000
E00000
E00000
E00000
FFFE00
FFFE00
FFFE00
E00000
E00000
E00000
E00000
E00000
E00000
E00000
E00000
E00000
E00000
FFFF80
FFFF80
FFFF80
001000
003000
003000
003000
003000
003980
001F80
001F00
ENDCHAR

STARTCHAR Edieresis
ENCODING 203
SWIDTH 547 0
DWIDTH 21 0
BBX 17 35 2 0
BITMAP
0E3800
0E3800
0E3800
0E3800
000000
000000
000000
FFFF80
FFFF80
FFFF80
E00000
E00000
E00000
E00000
E00000
E00000
E00000
E00000
E00000
FFFF00
FFFF00
FFFF00
E00000
E00000
E00000
E00000
E00000
E00000
E00000
E00000
E00000
E00000
FFFF80
FFFF80
FFFF80
ENDCHAR

STARTCHAR Edotaccent
ENCODING 204
SWIDTH 547 0
DWIDTH 21 0
BBX 17 34 2 0
BITMAP
01C000
01C000
01C000
01C000
000000
000000
FFFF00
FFFF00
FFFF00
E00000
E00000
E00000
E00000
E00000
E00000
E00000
E00000
E00000
FFFE00
FFFE00
FFFE00
E00000
E00000
E00000
E00000
E00000
E00000
E00000
E00000
E00000
E00000
FFFF80
FFFF80
FFFF80
ENDCHAR

STARTCHAR Iacute
ENCODING 205
SWIDTH 228 0
DWIDTH 9 0
BBX 5 35 3 0
BITMAP
78
70
70
E0
C0
00
00
E0
E0
E0
E0
E0
E0
E0
E0
E0
E0
E0
E0
E0
E0
E0
E0
E0
E0
E0
E0
E0
E0
E0
E0
E0
E0
E0
E0
ENDCHAR

STARTCHAR Icircumflex
ENCODING 206
SWIDTH 228 0
DWIDTH 9 0
BBX 9 35 0 0
BITMAP
1C00
3E00
7700
7700
E380
0000
0000
1C00
1C00
1C00
1C00
1C00
1C00
1C00
1C00
1C00
1C00
1C00
1C00
1C00
1C00
1C00
1C00
1C00
1C00
1C00
1C00
1C00
1C00
1C00
1C00
1C00
1C00
1C00
1C00
ENDCHAR

STARTCHAR Imacron
ENCODING 207
SWIDTH 228 0
DWIDTH 9 0
BBX 9 33 0 0
BITMAP
FF80
FF80
FF80
0000
0000
1C00
1C00
1C00
1C00
1C00
1C00
1C00
1C00
1C00
1C00
1C00
1C00
1C00
1C00
1C00
1C00
1C00
1C00
1C00
1C00
1C00
1C00
1C00
1C00
1C00
1C00
1C00
1C00
ENDCHAR

STARTCHAR Eth
ENCODING 208
SWIDTH 592 0
DWIDTH 22 0
BBX 20 28 1 0
BITMAP
3FFC00
3FFF00
3FFF80
3807C0
3803C0
3801E0
3800E0
3800E0
3800F0
380070
380070
380070
380070
FFE070
FFE070
380070
380070
380070
380070
3800E0
3800E0
3800E0
3801C0
3803C0
380F80
3FFF80
3FFF00
3FFC00
ENDCHAR

STARTCHAR Ncommaaccent
ENCODING 209
SWIDTH 592 0
DWIDTH 22 0
BBX 18 36 2 -8
BITMAP
F001C0
F001C0
F801C0
F801C0
FC01C0
FC01C0
EE01C0
EE01C0
EF01C0
E701C0
E781C0
E3C1C0
E1C1C0
E1E1C0
E0E1C0
E0F1C0
E071C0
E079C0
E039C0
E03DC0
E01DC0
E01EC0
E00FC0
E007C0
E007C0
E003C0
E003C0
E001C0
000000
000000
00E000
00E000
00E000
006000
004000
00C000
ENDCHAR

STARTCHAR Omacron
ENCODING 210
SWIDTH 638 0
DWIDTH 24 0
BBX 21 33 2 0
BITMAP
03FE00
03FE00
03FE00
000000
000000
01FC00
07FF00
0FFF80
1F07C0
3C01E0
3800E0
7800F0
700070
700070
700078
E00038
E00038
E00038
E00038
E00038
E00038
E00038
E00038
F00078
700070
700070
7800F0
3C00E0
1E01E0
1F07C0
0FFF80
03FF00
00FC00
ENDCHAR

STARTCHAR Kcommaaccent
ENCODING 211
SWIDTH 547 0
DWIDTH 21 0
BBX 18 36 2 -8
BITMAP
E007C0
E00700
E00F00
E01E00
E03C00
E07800
E07000
E0E000
E1E000
E3C000
E78000
E70000
EF8000
EFC000
FDC000
F9E000
F0E000
E0F000
E07800
E07800
E03C00
E01C00
E01E00
E00E00
E00F00
E00780
E00780
E003C0
000000
000000
038000
038000
038000
018000
010000
030000
ENDCHAR

STARTCHAR Ocircumflex
ENCODING 212
SWIDTH 638 0
DWIDTH 24 0
BBX 21 35 2 0
BITMAP
007000
00F800
01D800
01DC00
038E00
000000
000000
01FC00
07FF00
0FFF80
1F07C0
3C01E0
3800E0
7800F0
700070
700070
700078
E00038
E00038
E00038
E00038
E00038
E00038
E00038
E00038
F00078
700070
700070
7800F0
3C00E0
1E01E0
1F07C0
0FFF80
03FF00
00FC00
ENDCHAR

STARTCHAR Otilde
ENCODING 213
SWIDTH 638 0
DWIDTH 24 0
BBX 21 34 2 0
BITMAP
01E700
03FE00
033E00
031C00
000000
000000
01FC00
07FF00
0FFF80
1F07C0
3C01E0
3800E0
7800F0
700070
700070
700078
E00038
E00038
E00038
E00038
E00038
E00038
E00038
E00038
F00078
700070
700070
7800F0
3C00E0
1E01E0
1F07C0
0FFF80
03FF00
00FC00
ENDCHAR

STARTCHAR Odieresis
ENCODING 214
SWIDTH 638 0
DWIDTH 24 0
BBX 21 35 2 0
BITMAP
038E00
038E00
038E00
038E00
000000
000000
000000
01FC00
07FF00
0FFF80
1F07C0
3C01E0
3800E0
7800F0
700070
700070
700038
E00038
E00038
E00038
E00038
E00038
E00038
E00038
E00038
E00038
700070
700070
7800F0
3800E0
1C01E0
1F07C0
0FFF80
07FF00
01FC00
ENDCHAR

STARTCHAR multiply
ENCODING 215
SWIDTH 479 0
DWIDTH 18 0
BBX 13 17 3 5
BITMAP
4010
C030
E078
F0F0
78E0
3DC0
1FC0
1F80
0F00
1F80
1FC0
3DC0
78E0
F0F0
E078
C030
4010
ENDCHAR

STARTCHAR Oslash
ENCODING 216
SWIDTH 638 0
DWIDTH 24 0
BBX 21 30 2 -1
BITMAP
000008
01FC18
07FF38
0FFFB0
1F07F0
3C01E0
3801E0
7801F0
7003B0
700770
F00638
E00C38
E01C38
E03838
E03038
E07038
E0E038
E1C038
E18038
738078
770070
760070
3C00F0
3C01E0
3C03E0
3F07C0
77FF80
E7FF00
C1FC00
400000
ENDCHAR

STARTCHAR Uogonek
ENCODING 217
SWIDTH 592 0
DWIDTH 22 0
BBX 17 36 3 -8
BITMAP
E00380
E00380
E00380
E00380
E00380
E00380
E00380
E00380
E00380
E00380
E00380
E00380
E00380
E00380
E00380
E00380
E00380
E00380
E00380
E00380
E00380
F00780
700700
780F00
3C1E00
3FFE00
1FFC00
07F000
018000
018000
018000
018000
018000
01C800
00F800
00F800
ENDCHAR

STARTCHAR Uacute
ENCODING 218
SWIDTH 592 0
DWIDTH 22 0
BBX 18 35 2 0
BITMAP
007800
007000
00E000
00E000
01C000
000000
000000
E001C0
E001C0
E001C0
E001C0
E001C0
E001C0
E001C0
E001C0
E001C0
E001C0
E001C0
E001C0
E001C0
E001C0
E001C0
E001C0
E001C0
E001C0
E001C0
E001C0
E001C0
F003C0
700380
780780
3E1F00
3FFF00
0FFC00
07F800
ENDCHAR

STARTCHAR Ucircumflex
ENCODING 219
SWIDTH 592 0
DWIDTH 22 0
BBX 18 35 2 0
BITMAP
01E000
03F000
03B000
073800
0F1C00
000000
000000
E001C0
E001C0
E001C0
E001C0
E001C0
E001C0
E001C0
E001C0
E001C0
E001C0
E001C0
E001C0
E001C0
E001C0
E001C0
E001C0
E001C0
E001C0
E001C0
E001C0
E001C0
F003C0
700380
780780
3E1F00
3FFF00
0FFC00
07F800
ENDCHAR

STARTCHAR Udieresis
ENCODING 220
SWIDTH 592 0
DWIDTH 22 0
BBX 17 35 3 0
BITMAP
0E3800
0E3800
0E3800
0E3800
000000
000000
000000
E00380
E00380
E00380
E00380
E00380
E00380
E00380
E00380
E00380
E00380
E00380
E00380
E00380
E00380
E00380
E00380
E00380
E00380
E00380
E00380
E00380
E00380
700700
780F00
3C1E00
3FFE00
1FFC00
07F000
ENDCHAR

STARTCHAR Utilde
ENCODING 221
SWIDTH 592 0
DWIDTH 22 0
BBX 18 34 2 0
BITMAP
078C00
0FFC00
0CFC00
0C3000
000000
000000
E001C0
E001C0
E001C0
E001C0
E001C0
E001C0
E001C0
E001C0
E001C0
E001C0
E001C0
E001C0
E001C0
E001C0
E001C0
E001C0
E001C0
E001C0
E001C0
E001C0
E001C0
F003C0
700380
780780
3E1F00
3FFF00
0FFC00
07F800
ENDCHAR

STARTCHAR Umacron
ENCODING 222
SWIDTH 592 0
DWIDTH 22 0
BBX 18 33 2 0
BITMAP
0FFC00
0FFC00
0FFC00
000000
000000
E001C0
E001C0
E001C0
E001C0
E001C0
E001C0
E001C0
E001C0
E001C0
E001C0
E001C0
E001C0
E001C0
E001C0
E001C0
E001C0
E001C0
E001C0
E001C0
E001C0
E001C0
F003C0
700380
780780
3E1F00
3FFF00
0FFC00
07F800
ENDCHAR

STARTCHAR germandbls
ENCODING 223
SWIDTH 501 0
DWIDTH 19 0
BBX 16 28 2 0
BITMAP
0F80
1FC0
3FE0
70F0
7070
E070
E070
E070
E060
E0E0
E0E0
E1C0
E1C0
E1C0
E1E0
E0F0
E078
E03C
E01E
E00F
E007
E007
E207
E707
E78E
E3FE
E1FC
E0F0
ENDCHAR

STARTCHAR amacron
ENCODING 224
SWIDTH 456 0
DWIDTH 17 0
BBX 15 26 1 0
BITMAP
1FF0
1FF0
1FF0
0000
0000
0000
0FE0
1FF0
3FF8
783C
701C
601C
001C
001C
00FC
1FFC
3FDC
781C
F01C
E01C
E01C
E03C
F07C
7FEC
3FDC
0F0E
ENDCHAR

STARTCHAR aacute
ENCODING 225
SWIDTH 456 0
DWIDTH 17 0
BBX 15 27 1 0
BITMAP
01E0
01C0
01C0
0380
0300
0000
0000
07E0
1FF0
3FF8
783C
701C
601C
001C
001C
00FC
1FFC
3FDC
781C
F01C
E01C
E01C
E03C
F07C
7FEC
3FDC
0F0E
ENDCHAR

STARTCHAR acircumflex
ENCODING 226
SWIDTH 456 0
DWIDTH 17 0
BBX 15 27 1 0
BITMAP
0780
07C0
0EC0
0EE0
1C70
0000
0000
07E0
1FF0
3FF8
783C
701C
601C
001C
001C
00FC
1FFC
3FDC
781C
F01C
E01C
E01C
E03C
F07C
7FEC
3FDC
0F0E
ENDCHAR

STARTCHAR atilde
ENCODING 227
SWIDTH 456 0
DWIDTH 17 0
BBX 15 27 1 0
BITMAP
0F30
1FF0
19F0
30E0
0000
0000
0000
07E0
1FF0
3FF8
783C
701C
601C
001C
001C
00FC
1FFC
3FDC
781C
F01C
E01C
E01C
E03C
F07C
7FEC
3FDC
0F0E
ENDCHAR

STARTCHAR adieresis
ENCODING 228
SWIDTH 456 0
DWIDTH 17 0
BBX 15 28 1 0
BITMAP
1C70
1C70
1C70
1C70
0000
0000
0000
0000
0FE0
1FF8
3FF8
783C
701C
601C
001C
001C
00FC
1FFC
3FDC
781C
E01C
E01C
E01C
E03C
F07C
7FEC
3FDC
0F0E
ENDCHAR

STARTCHAR aring
ENCODING 229
SWIDTH 456 0
DWIDTH 17 0
BBX 15 28 1 0
BITMAP
0380
06C0
0440
0440
0440
06C0
0380
0000
07C0
1FF0
3FF8
783C
701C
701C
001C
001C
00FC
1FFC
3FDC
781C
F01C
E01C
E01C
E03C
F07C
7FEC
3FDC
0F0E
ENDCHAR

STARTCHAR ae
ENCODING 230
SWIDTH 729 0
DWIDTH 28 0
BBX 26 20 1 0
BITMAP
07E0F800
1FF3FE00
3FFFFF00
783F0700
701E0380
601E0180
001C01C0
001C01C0
03FFFFC0
1FFFFFC0
3FDFFFC0
781C0000
F01C0000
E01C0180
E01E01C0
E03E0380
F0770780
7FE7FF00
3FC1FE00
0F00F800
ENDCHAR

STARTCHAR iogonek
ENCODING 231
SWIDTH 182 0
DWIDTH 7 0
BBX 7 36 2 -8
BITMAP
E0
E0
E0
E0
00
00
00
00
E0
E0
E0
E0
E0
E0
E0
E0
E0
E0
E0
E0
E0
E0
E0
E0
E0
E0
E0
E0
C0
C0
C0
C0
C0
E6
7E
7C
ENDCHAR

STARTCHAR ccaron
ENCODING 232
SWIDTH 410 0
DWIDTH 16 0
BBX 14 27 1 0
BITMAP
1C70
0EE0
0EE0
07C0
0780
0000
0000
07C0
1FF0
3FF8
3838
703C
701C
E010
E000
E000
E000
E000
E000
E010
601C
701C
701C
3838
3FF0
1FE0
07C0
ENDCHAR

STARTCHAR eacute
ENCODING 233
SWIDTH 456 0
DWIDTH 17 0
BBX 15 28 1 0
BITMAP
00E0
01E0
01C0
0180
0380
0300
0000
0000
07C0
1FF0
3FF8
383C
701C
700C
E00E
E00E
FFFE
FFFE
FFFE
E000
E000
E008
700E
701C
3C3C
3FF8
1FF0
03C0
ENDCHAR

STARTCHAR eogonek
ENCODING 234
SWIDTH 456 0
DWIDTH 17 0
BBX 15 28 1 -8
BITMAP
07C0
0FF0
3FF8
3C3C
781C
700C
E00E
E00E
FFFE
FFFE
FFFE
E000
E000
F008
700E
781C
3C3C
3FF8
0FF0
07E0
0180
0180
0180
0180
0180
01E8
00F8
00F8
ENDCHAR

STARTCHAR edieresis
ENCODING 235
SWIDTH 456 0
DWIDTH 17 0
BBX 15 28 1 0
BITMAP
1C70
1C70
1C70
1C70
0000
0000
0000
0000
07C0
1FF0
3FF8
383C
701C
700C
E00E
E00E
FFFE
FFFE
FFFE
E000
E000
E008
700E
701C
383C
3FF8
1FF0
03C0
ENDCHAR

STARTCHAR edotaccent
ENCODING 236
SWIDTH 456 0
DWIDTH 17 0
BBX 15 26 1 0
BITMAP
0380
0380
0380
0380
0000
0000
07C0
1FF0
3FF8
383C
701C
700C
E00E
E00E
FFFE
FFFE
FFFE
E000
E000
E008
700E
701C
3C3C
3FF8
1FF0
03C0
ENDCHAR

STARTCHAR iacute
ENCODING 237
SWIDTH 228 0
DWIDTH 9 0
BBX 5 28 3 0
BITMAP
38
78
70
E0
E0
C0
00
00
E0
E0
E0
E0
E0
E0
E0
E0
E0
E0
E0
E0
E0
E0
E0
E0
E0
E0
E0
E0
ENDCHAR

STARTCHAR icircumflex
ENCODING 238
SWIDTH 228 0
DWIDTH 9 0
BBX 9 28 0 0
BITMAP
1C00
3E00
3E00
7700
E380
E380
0000
0000
1C00
1C00
1C00
1C00
1C00
1C00
1C00
1C00
1C00
1C00
1C00
1C00
1C00
1C00
1C00
1C00
1C00
1C00
1C00
1C00
ENDCHAR

STARTCHAR imacron
ENCODING 239
SWIDTH 228 0
DWIDTH 9 0
BBX 9 26 0 0
BITMAP
FF80
FF80
FF80
0000
0000
0000
1C00
1C00
1C00
1C00
1C00
1C00
1C00
1C00
1C00
1C00
1C00
1C00
1C00
1C00
1C00
1C00
1C00
1C00
1C00
1C00
ENDCHAR

STARTCHAR dcroat
ENCODING 240
SWIDTH 456 0
DWIDTH 17 0
BBX 16 28 1 0
BITMAP
001C
001C
001C
03FF
03FF
001C
001C
001C
0F9C
1FDC
3FEC
387C
703C
701C
E01C
E01C
E01C
E01C
E01C
E01C
E01C
601C
701C
703C
387C
3FEC
1FDC
079C
ENDCHAR

STARTCHAR ncommaaccent
ENCODING 241
SWIDTH 456 0
DWIDTH 17 0
BBX 13 28 2 -8
BITMAP
E7C0
EFE0
EFF0
F870
F038
E038
E038
E038
E038
E038
E038
E038
E038
E038
E038
E038
E038
E038
E038
E038
0000
0000
0700
0700
0700
0300
0200
0600
ENDCHAR

STARTCHAR omacron
ENCODING 242
SWIDTH 456 0
DWIDTH 17 0
BBX 15 26 1 0
BITMAP
1FF0
1FF0
1FF0
0000
0000
0000
07C0
1FF0
3FF8
3838
701C
701C
E00E
E00E
E00E
E00E
E00E
E00E
E00E
E00E
701C
701C
3838
3FF8
1FF0
07C0
ENDCHAR

STARTCHAR kcommaaccent
ENCODING 243
SWIDTH 410 0
DWIDTH 16 0
BBX 13 36 2 -8
BITMAP
E000
E000
E000
E000
E000
E000
E000
E000
E078
E0F0
E1E0
E3C0
E380
E700
EE00
EE00
FE00
FF00
F700
E380
E380
E1C0
E1C0
E0E0
E0F0
E070
E078
E038
0000
0000
0E00
0E00
0E00
0600
0400
0C00
ENDCHAR

STARTCHAR ocircumflex
ENCODING 244
SWIDTH 456 0
DWIDTH 17 0
BBX 15 27 1 0
BITMAP
0380
07C0
0EE0
0EE0
1C70
0000
0000
07C0
1FF0
3FF8
3838
701C
701C
E00E
E00E
E00E
E00E
E00E
E00E
E00E
E00E
701C
701C
3838
3FF8
1FF0
07C0
ENDCHAR

STARTCHAR otilde
ENCODING 245
SWIDTH 456 0
DWIDTH 17 0
BBX 15 27 1 0
BITMAP
0F30
1FF0
19F0
18E0
0000
0000
0000
07C0
1FF0
3FF8
3838
701C
701C
E00E
E00E
E00E
E00E
E00E
E00E
E00E
E00E
701C
701C
3838
3FF8
1FF0
07C0
ENDCHAR

STARTCHAR odieresis
ENCODING 246
SWIDTH 456 0
DWIDTH 17 0
BBX 15 28 1 0
BITMAP
1C70
1C70
1C70
1C70
0000
0000
0000
0000
07C0
1FF0
3FF8
383C
701C
700C
E00E
E00E
E00E
E00E
E00E
E00E
E00E
E00E
701C
701C
3838
3FF8
1FF0
07C0
ENDCHAR

STARTCHAR divide
ENCODING 247
SWIDTH 479 0
DWIDTH 18 0
BBX 15 15 2 6
BITMAP
0380
0380
0380
0380
0000
0000
FFFE
FFFE
FFFE
0000
0000
0380
0380
0380
0380
ENDCHAR

STARTCHAR oslash
ENCODING 248
SWIDTH 501 0
DWIDTH 19 0
BBX 15 22 2 -1
BITMAP
0004
07C6
1FF4
3FFC
3838
703C
707C
606E
E0CE
E1CE
E18E
E30E
E70E
E60E
EE0E
7C1C
781C
3838
3FF8
6FE0
E7C0
4000
ENDCHAR

STARTCHAR uogonek
ENCODING 249
SWIDTH 456 0
DWIDTH 17 0
BBX 17 28 2 -8
BITMAP
E03800
E03800
E03800
E03800
E03800
E03800
E03800
E03800
E03800
E03800
E03800
E03800
E03800
E03800
E03800
E07800
70F800
7FD800
3F9800
1F1800
003000
003000
003000
003000
003000
003D80
001F80
001F00
ENDCHAR

STARTCHAR uacute
ENCODING 250
SWIDTH 456 0
DWIDTH 17 0
BBX 13 28 2 0
BITMAP
01C0
0380
0380
0300
0700
0600
0000
0000
E038
E038
E038
E038
E038
E038
E038
E038
E038
E038
E038
E038
E038
E038
E038
E078
70F8
7FD8
3FB8
0F38
ENDCHAR

STARTCHAR ucircumflex
ENCODING 251
SWIDTH 456 0
DWIDTH 17 0
BBX 13 28 2 0
BITMAP
0700
0F80
0E80
1DC0
18C0
38E0
0000
0000
E038
E038
E038
E038
E038
E038
E038
E038
E038
E038
E038
E038
E038
E038
E038
E078
70F8
7FD8
3FB8
0F38
ENDCHAR

STARTCHAR udieresis
ENCODING 252
SWIDTH 456 0
DWIDTH 17 0
BBX 13 28 2 0
BITMAP
38E0
38E0
38E0
38E0
0000
0000
0000
0000
E038
E038
E038
E038
E038
E038
E038
E038
E038
E038
E038
E038
E038
E038
E038
E078
70F8
7FD8
3FB8
0F38
ENDCHAR

STARTCHAR utilde
ENCODING 253
SWIDTH 456 0
DWIDTH 17 0
BBX 13 27 2 0
BITMAP
1E30
3FE0
33E0
31C0
0000
0000
0000
E038
E038
E038
E038
E038
E038
E038
E038
E038
E038
E038
E038
E038
E038
E038
E078
70F8
7FD8
3FB8
0F38
ENDCHAR

STARTCHAR umacron
ENCODING 254
SWIDTH 456 0
DWIDTH 17 0
BBX 13 26 2 0
BITMAP
3FE0
3FE0
3FE0
0000
0000
0000
E038
E038
E038
E038
E038
E038
E038
E038
E038
E038
E038
E038
E038
E038
E038
E078
70F8
7FD8
3FB8
0F38
ENDCHAR

STARTCHAR dotaccent
ENCODING 255
SWIDTH 273 0
DWIDTH 10 0
BBX 3 4 4 22
BITMAP
E0
E0
E0
E0
ENDCHAR
ENDFONT
